<svg xmlns="http://www.w3.org/2000/svg" width="34.253" height="25.689" viewBox="0 0 34.253 25.689">
  <path id="envelope" d="M33.6,72.483a.4.4,0,0,1,.649.314V86.478a3.212,3.212,0,0,1-3.211,3.211H3.211A3.212,3.212,0,0,1,0,86.478V72.8a.4.4,0,0,1,.649-.314c1.5,1.164,3.485,2.643,10.309,7.6,1.412,1.03,3.793,3.2,6.168,3.184,2.388.02,4.817-2.194,6.175-3.184C30.125,75.132,32.105,73.647,33.6,72.483ZM17.126,81.126c1.552.027,3.787-1.953,4.91-2.77,8.878-6.442,9.553-7,11.6-8.61a1.6,1.6,0,0,0,.615-1.264V67.211A3.212,3.212,0,0,0,31.042,64H3.211A3.212,3.212,0,0,0,0,67.211v1.271a1.611,1.611,0,0,0,.615,1.264c2.047,1.6,2.723,2.168,11.6,8.61C13.34,79.173,15.574,81.153,17.126,81.126Z" transform="translate(0 -64)" fill="#8c5e1a"/>
</svg>
