<svg xmlns="http://www.w3.org/2000/svg" width="105.682" height="90.001" viewBox="0 0 105.682 90.001">
  <g id="Group_1291" data-name="Group 1291" transform="translate(-81.6 -120.344)">
    <path id="Path_2276" data-name="Path 2276" d="M154.837,301.886c-3.694-6.463-6.4-13.091-12.549-17.157a6.8,6.8,0,0,0-1.84-.977c6.365,4.781,9.555,11.7,13.015,18.608a10.179,10.179,0,0,1-7.29.766A23.762,23.762,0,0,1,130.746,292.2a50.766,50.766,0,0,0-23.817-19.852c-.079-.033-.131-.132-.388-.4,2.02-.607,3.909-1.222,5.824-1.74a69.246,69.246,0,0,1,15.686-2.368c9.881-.356,17.29,4.013,23.062,11.652,3.314,4.385,5.7,9.195,5.942,14.808a13.968,13.968,0,0,1-.438,4.189A18.189,18.189,0,0,1,154.837,301.886Z" transform="translate(-17.374 -102.736)" fill="#fff"/>
    <path id="Path_2277" data-name="Path 2277" d="M98.709,120.344c-2.737,3.467-5.815,6.718-8.157,10.434-18.369,29.157-2.85,66.266,29.216,74.272,24.44,6.1,49.655-8.45,56.093-32.591a64.722,64.722,0,0,0,1.386-8.2c.41-3.109,2.764-5.162,5.679-4.779a5.081,5.081,0,0,1,4.243,6.234,53.131,53.131,0,0,1-6.769,17.751c-9.068,14.772-22.081,23.943-39.294,26.354-29.744,4.165-55.619-16.785-59.044-44.364-2.166-17.444,3.319-32.262,16.083-44.367.236-.224.494-.423.741-.633Z" transform="translate(0 0)" fill="#fff"/>
    <path id="Path_2278" data-name="Path 2278" d="M302.8,280.071c-2.674,1.54-5.328,2.89-7.792,4.527a34.584,34.584,0,0,0-9.855,10.148c-2.84,4.37-6.566,7.656-11.767,8.939a21.2,21.2,0,0,1-2.62.325c-.925-4.473-.35-8.379,3.017-11.58a35.425,35.425,0,0,0,2.6-3.057,37.918,37.918,0,0,0-3.4,2.86,46.382,46.382,0,0,0-2.989,3.792c-.939-2.1-1.921-4.175-2.774-6.3a2.032,2.032,0,0,1,.333-1.5c4.984-8.172,12.089-12.2,21.81-11.144A58.751,58.751,0,0,1,302.8,280.071Z" transform="translate(-129.266 -109.067)" fill="#fff"/>
    <path id="Path_2279" data-name="Path 2279" d="M282.2,204.675a2.182,2.182,0,0,1,2.523,1.136c1.152,1.821,2.148,3.744,3.182,5.639.327.6.572,1.242.854,1.864l.547-.071c0-1.476.043-2.954-.012-4.428-.054-1.441-.21-2.878-.321-4.324,1.226-.179,2.088.427,2.315,1.953a27.91,27.91,0,0,1,.221,4.069c0,1.715-.046,3.434-.174,5.143-.041.543-.325,1.442-.643,1.511a2.939,2.939,0,0,1-2.089-.336,4.918,4.918,0,0,1-1.415-1.9c-.864-1.752-1.63-3.552-2.441-5.33-.008-.018-.091,0-.222,0-.145,2.125-.273,4.262-.446,6.4-.073.9-.436,1.566-1.534,1.4-.784-.117-1.053-.45-.989-1.327C281.823,212.358,281.983,208.641,282.2,204.675Z" transform="translate(-139.286 -58.598)" fill="#fff"/>
    <path id="Path_2280" data-name="Path 2280" d="M206.169,211.628c-1.741-.1-3.717,1-4.461-1.52,1.211-.253,2.273-.5,3.344-.692,2.11-.375,3.516,1.031,3.222,3.192-.423,3.115-3.524,5.083-7.222,4.584a5.591,5.591,0,0,1-5.049-5.81c-.058-3.448,1.845-6.173,4.751-6.609a9.217,9.217,0,0,1,2.511.262c1.037.143,2.08.272,3.1.491a4.992,4.992,0,0,1,1.186.614c-.247.451-.4,1.158-.762,1.3a4.9,4.9,0,0,1-2.182.189,11.453,11.453,0,0,1-1.87-.588,3.148,3.148,0,0,0-4.263,2.439c-.558,2.157.451,4.711,2.171,5.5a4.051,4.051,0,0,0,4.975-1.776A7.826,7.826,0,0,0,206.169,211.628Z" transform="translate(-79.696 -58.794)" fill="#fff"/>
    <path id="Path_2281" data-name="Path 2281" d="M158.811,205.084c1.591,1.567,3.01.532,4.475.342,3.139-.408,5.6,1.728,5.2,4.682-.143,1.053-1.1,2.025-1.788,2.961a8.622,8.622,0,0,1-1.718,1.254c1.122.571,1.98.959,2.785,1.437a7.131,7.131,0,0,1,1.089.986c-.4.315-.763.818-1.21.91-1.629.337-2.764-.62-3.826-1.682-.71-.711-1.442-1.4-2.5-2.422a18.146,18.146,0,0,1-.415,2.865,5.057,5.057,0,0,1-1.016,1.326c-.45-.4-1.041-.718-1.308-1.214a3.522,3.522,0,0,1-.144-1.625c.048-2.87.115-5.739.184-8.608C158.622,206.053,158.691,205.812,158.811,205.084Zm2.438,5.023c0,1.735.359,2.135,1.9,2.137a3.289,3.289,0,0,0,3.116-3.256,1.819,1.819,0,0,0-2.1-1.827C162.208,207.2,161.246,208.168,161.249,210.107Z" transform="translate(-53.508 -59.032)" fill="#fff"/>
    <path id="Path_2282" data-name="Path 2282" d="M116.4,211.433a21.709,21.709,0,0,1,.592-2.572c1.005-3,3.266-4.274,6.386-3.714.985.177,1.98.3,2.976.414.8.09.953.471.837,1.244a4.645,4.645,0,0,0,.147,2.091,6.983,6.983,0,0,1-1.22,7.115,5.358,5.358,0,0,1-6.205,1.49C117.735,216.622,116.37,214.478,116.4,211.433Zm2.148.132.386.2c.006,1.454.152,2.88,1.677,3.585a2.93,2.93,0,0,0,3.368-.574c2.142-1.959,1.579-6.2-.957-7.59-.92-.506-1.869-.527-2.424.347A43.342,43.342,0,0,0,118.548,211.566Z" transform="translate(-24.243 -58.986)" fill="#fff"/>
    <path id="Path_2283" data-name="Path 2283" d="M348.694,211.545a7.1,7.1,0,0,1,1.932-5.112,4.564,4.564,0,0,1,4.589-1.24,30.3,30.3,0,0,0,3.535.555c1.039.107,1.306.813.8,1.423a3.9,3.9,0,0,1-2.123,1.031c-.472.1-1.045-.295-1.575-.458-1.974-.607-3.272-.2-4.049,1.251-.814,1.522-.569,4.027.485,4.986a4.11,4.11,0,0,0,4.8-.066c.771-.588,1.611-1.726,2.523-.514.847,1.126-.229,1.992-1.052,2.625a6.3,6.3,0,0,1-6.734.637A5.217,5.217,0,0,1,348.694,211.545Z" transform="translate(-186.064 -58.997)" fill="#fff"/>
    <path id="Path_2284" data-name="Path 2284" d="M251.922,215.14c-.016,1.268-.8,1.749-1.722,1.208a2.674,2.674,0,0,1-.742-.733c-.458-.618-.813-1.737-1.325-1.807a16.152,16.152,0,0,0-4.05.232c-.255.031-.482.455-.681.727-.326.445-.52,1.084-.949,1.328a5.009,5.009,0,0,1-1.754.28c-.009-.569-.212-1.232.008-1.691,1-2.08,2.213-4.062,3.158-6.165a10.9,10.9,0,0,0,.7-3.355c.105-1.055.63-1.086,1.3-.656a3.831,3.831,0,0,1,1.237,1.3c1.566,2.813,3.079,5.656,4.589,8.5A3.282,3.282,0,0,1,251.922,215.14Zm-7.132-2.9,3.269-.3-1.942-3.568Z" transform="translate(-110.766 -58.45)" fill="#fff"/>
    <path id="Path_2285" data-name="Path 2285" d="M319.755,204.867c2.2.29,4.587-1.518,7.033,1.048l-2.756.724c0,2.385-.022,4.834.035,7.281.005.231.469.541.778.651.413.147.94.029,1.311.226a1.349,1.349,0,0,1,.573.943.917.917,0,0,1-.6.677c-1.8.168-3.611.269-5.419.362a1.017,1.017,0,0,1-.7-.225,7.384,7.384,0,0,1-.74-1.015c.338-.147.69-.443,1.012-.414,1.073.1,1.4-.349,1.416-1.381.023-1.811.151-3.623.277-5.432.066-.947-.079-1.629-1.185-1.894-.487-.117-.876-.64-1.309-.978Z" transform="translate(-165.565 -58.637)" fill="#fff"/>
    <path id="Path_2286" data-name="Path 2286" d="M247.956,137.189c.133-1,.207-2.114.445-3.189a5.442,5.442,0,0,0-.056-3.635c-.546-1.242.191-2.274,1.6-2.75a4.657,4.657,0,0,1,6.381,4.358,11.263,11.263,0,0,1-3.935,8.677c-1.684,1.58-3.673.829-4.191-1.409A18.764,18.764,0,0,1,247.956,137.189Zm1.467-3.592c.119,2.178.145,4.267.385,6.331.1.9.812,1.3,1.633.516,2.6-2.491,4.156-5.451,3.851-9.149a3.748,3.748,0,0,0-2.49-3.342c-.99-.382-2.076-.571-2.782.83l1.184.154c-1.188,1.616-.734,3.1.283,4.66Z" transform="translate(-115.888 -4.86)" fill="#fff"/>
    <path id="Path_2287" data-name="Path 2287" d="M219.558,137.018c.12-.881.219-1.99.431-3.078a5.222,5.222,0,0,0-.114-3.664,1.778,1.778,0,0,1,.987-2.4,4.68,4.68,0,0,1,6.967,3.539c.334,3.714-1.292,6.721-3.854,9.18-1.769,1.7-3.894.767-4.255-1.683C219.64,138.36,219.623,137.8,219.558,137.018Zm1.628-3.472a52.328,52.328,0,0,0,.052,5.9c.184,1.595.976,1.774,2.093.674a12.107,12.107,0,0,0,3.614-7.322,4.492,4.492,0,0,0-2.27-4.743c-.98-.472-2.019-.73-2.886.277-.081.094-.064.272-.1.443l1.078.114c-1.135,1.588-.77,3.089.284,4.662Z" transform="translate(-96.105 -4.819)" fill="#fff"/>
    <path id="Path_2288" data-name="Path 2288" d="M276.67,141.2a59.722,59.722,0,0,1,4.34-14.513C281.962,128.639,278.688,139.921,276.67,141.2Z" transform="translate(-135.89 -4.421)" fill="#fff"/>
    <path id="Path_2289" data-name="Path 2289" d="M210.035,127.1q-.329,6.945-.659,13.889h-.831c-.327-3.689-.114-7.41-.179-11.275l-1.085.575-.228-.171,2.266-3.351Z" transform="translate(-87.394 -4.475)" fill="#fff"/>
    <path id="Path_2290" data-name="Path 2290" d="M279.437,132.32l-1.236,1.1c-.284-.374-.82-.771-.788-1.116.042-.447.536-.851.836-1.274Z" transform="translate(-136.407 -7.448)" fill="#fff"/>
    <path id="Path_2291" data-name="Path 2291" d="M292.309,164.136l-1.342,1.065c-.252-.406-.711-.818-.7-1.216.012-.419.475-.824.74-1.236Z" transform="translate(-145.363 -29.54)" fill="#fff"/>
  </g>
</svg>
