<svg id="Group_151" data-name="Group 151" xmlns="http://www.w3.org/2000/svg" width="36" height="36" viewBox="0 0 36 36">
  <path id="Shape" d="M7.874,7.874a1.174,1.174,0,0,1-1.66,0L.344,2A1.174,1.174,0,0,1,2,.344l5.04,5.04,5.04-5.04A1.174,1.174,0,0,1,13.743,2Z" transform="translate(14 25.087) rotate(-90)" fill="#fff"/>
  <path id="Ellipse_88" data-name="Ellipse 88" d="M18,1A17,17,0,0,0,5.979,30.021,17,17,0,1,0,30.021,5.979,16.889,16.889,0,0,0,18,1m0-1A18,18,0,1,1,0,18,18,18,0,0,1,18,0Z" fill="#fff"/>
</svg>
