<svg id="Group_1262" data-name="Group 1262" xmlns="http://www.w3.org/2000/svg" width="50.734" height="32.787" viewBox="0 0 50.734 32.787">
  <path id="Path_402" data-name="Path 402" d="M360.934,315.3a5.837,5.837,0,1,1,5.837-5.837A5.844,5.844,0,0,1,360.934,315.3Zm0-8.4a2.564,2.564,0,1,0,2.564,2.564A2.567,2.567,0,0,0,360.934,306.9Z" transform="translate(-319.91 -282.514)" fill="#fff"/>
  <path id="Path_403" data-name="Path 403" d="M6.765,119.04H1.637A1.637,1.637,0,0,1,0,117.4V92.2a1.637,1.637,0,0,1,1.637-1.637H32.623A1.637,1.637,0,0,1,34.26,92.2v25.2H30.986V93.836H3.273v21.93H6.765Z" transform="translate(0 -90.563)" fill="#fff"/>
  <rect id="Rectangle_80" data-name="Rectangle 80" width="22.04" height="3.273" transform="translate(14.784 25.204)" fill="#fff"/>
  <path id="Path_404" data-name="Path 404" d="M55.385,315.3a5.837,5.837,0,1,1,5.837-5.837A5.844,5.844,0,0,1,55.385,315.3Zm0-8.4a2.564,2.564,0,1,0,2.564,2.564A2.567,2.567,0,0,0,55.385,306.9Z" transform="translate(-44.638 -282.514)" fill="#fff"/>
  <path id="Path_405" data-name="Path 405" d="M345.7,242.54h-3.982v-3.273h2.346V230.92H329.222v-3.273H345.7a1.637,1.637,0,0,1,1.637,1.637V240.9A1.636,1.636,0,0,1,345.7,242.54Z" transform="translate(-296.599 -214.063)" fill="#fff"/>
  <path id="Path_406" data-name="Path 406" d="M342.081,160.635l-3.734-6.79h-9.125v-3.273h10.092a1.637,1.637,0,0,1,1.434.848l4.2,7.638Z" transform="translate(-296.599 -144.626)" fill="#fff"/>
</svg>
