<svg id="Group_1261" data-name="Group 1261" xmlns="http://www.w3.org/2000/svg" width="28.904" height="32.887" viewBox="0 0 28.904 32.887">
  <path id="Path_413" data-name="Path 413" d="M93.89,210A2.894,2.894,0,0,0,91,212.89v7.836a2.89,2.89,0,1,0,5.781,0V212.89A2.894,2.894,0,0,0,93.89,210Z" transform="translate(-87.146 -196.511)" fill="#fff"/>
  <path id="Path_414" data-name="Path 414" d="M33.009,242.366A2.885,2.885,0,0,0,31,245.1v3.982a2.885,2.885,0,0,0,2.009,2.738,4.78,4.78,0,0,1-.082-.812v-7.836A4.78,4.78,0,0,1,33.009,242.366Z" transform="translate(-31 -226.798)" fill="#fff"/>
  <path id="Path_415" data-name="Path 415" d="M221.6,210a2.894,2.894,0,0,0-2.89,2.89v7.836a2.894,2.894,0,0,0,2.89,2.89,2.851,2.851,0,0,0,.828-.135,2.885,2.885,0,0,1-2.755,2.062H216.6a2.89,2.89,0,1,0,0,1.927h3.068a4.823,4.823,0,0,0,4.817-4.817V212.89A2.894,2.894,0,0,0,221.6,210Z" transform="translate(-199.438 -196.511)" fill="#fff"/>
  <path id="Path_416" data-name="Path 416" d="M449.722,242.366a4.78,4.78,0,0,1,.082.812v7.836a4.78,4.78,0,0,1-.082.812,2.885,2.885,0,0,0,2.009-2.738V245.1A2.885,2.885,0,0,0,449.722,242.366Z" transform="translate(-422.827 -226.798)" fill="#fff"/>
  <path id="Path_417" data-name="Path 417" d="M45.452,0A14.468,14.468,0,0,0,31,14.452v.025a4.771,4.771,0,0,1,1.971-.9,12.51,12.51,0,0,1,24.962,0,4.772,4.772,0,0,1,1.971.9v-.025A14.468,14.468,0,0,0,45.452,0Z" transform="translate(-31)" fill="#fff"/>
</svg>
