<svg xmlns="http://www.w3.org/2000/svg" width="25.59" height="25.59" viewBox="0 0 25.59 25.59">
  <g id="Group_190" data-name="Group 190" transform="translate(0 0)">
    <path id="Path_424" data-name="Path 424" d="M468.113,456.833l4.162-2.4-4.162-2.4Zm0,0" transform="translate(-456.912 -441.641)" fill="#fff"/>
    <path id="Path_425" data-name="Path 425" d="M256.8,244a12.8,12.8,0,1,0,12.8,12.8A12.8,12.8,0,0,0,256.8,244Zm8,12.808a21.115,21.115,0,0,1-.329,3.846,2,2,0,0,1-1.409,1.409,48.63,48.63,0,0,1-6.256.329,46.892,46.892,0,0,1-6.256-.342,2,2,0,0,1-1.409-1.409,22.62,22.62,0,0,1,0-7.692,2.044,2.044,0,0,1,1.409-1.422,48.628,48.628,0,0,1,6.256-.329,46.793,46.793,0,0,1,6.256.342,2,2,0,0,1,1.409,1.409,20.038,20.038,0,0,1,.329,3.859Zm0,0" transform="translate(-244 -244)" fill="#fff"/>
  </g>
</svg>
