<svg xmlns="http://www.w3.org/2000/svg" width="25.59" height="25.59" viewBox="0 0 25.59 25.59">
  <g id="Group_187" data-name="Group 187" transform="translate(0 0)">
    <path id="Path_420" data-name="Path 420" d="M455.9,453.449A2.449,2.449,0,1,1,453.449,451a2.449,2.449,0,0,1,2.449,2.449Zm0,0" transform="translate(-440.654 -440.654)" fill="#fff"/>
    <path id="Path_421" data-name="Path 421" d="M391.235,381.178a2.433,2.433,0,0,0-1.394-1.394,4.065,4.065,0,0,0-1.364-.253c-.775-.035-1.007-.043-2.969-.043s-2.194.007-2.969.043a4.069,4.069,0,0,0-1.364.253,2.434,2.434,0,0,0-1.395,1.394,4.066,4.066,0,0,0-.253,1.364c-.035.775-.043,1.007-.043,2.969s.008,2.194.043,2.969a4.065,4.065,0,0,0,.253,1.364,2.432,2.432,0,0,0,1.394,1.394,4.059,4.059,0,0,0,1.364.253c.775.035,1.007.043,2.969.043s2.194-.007,2.969-.043a4.059,4.059,0,0,0,1.364-.253,2.433,2.433,0,0,0,1.394-1.394,4.07,4.07,0,0,0,.253-1.364c.035-.775.043-1.007.043-2.969s-.007-2.194-.043-2.969a4.061,4.061,0,0,0-.253-1.364Zm-5.727,8.106a3.773,3.773,0,1,1,3.773-3.773,3.773,3.773,0,0,1-3.773,3.773Zm3.922-6.813a.882.882,0,1,1,.882-.882.882.882,0,0,1-.882.882Zm0,0" transform="translate(-372.712 -372.716)" fill="#fff"/>
    <path id="Path_422" data-name="Path 422" d="M256.8,244a12.8,12.8,0,1,0,12.8,12.8A12.8,12.8,0,0,0,256.8,244Zm7.3,15.824a5.391,5.391,0,0,1-.341,1.784,3.757,3.757,0,0,1-2.149,2.149,5.394,5.394,0,0,1-1.783.341c-.783.036-1.034.044-3.029.044s-2.246-.009-3.029-.044a5.394,5.394,0,0,1-1.783-.341,3.757,3.757,0,0,1-2.149-2.149,5.39,5.39,0,0,1-.341-1.783c-.036-.784-.045-1.034-.045-3.029s.008-2.246.044-3.029a5.39,5.39,0,0,1,.341-1.783,3.759,3.759,0,0,1,2.149-2.149,5.4,5.4,0,0,1,1.783-.341c.783-.036,1.034-.044,3.029-.044s2.246.009,3.029.045a5.4,5.4,0,0,1,1.784.341,3.758,3.758,0,0,1,2.149,2.149,5.39,5.39,0,0,1,.342,1.783c.036.783.044,1.034.044,3.029s-.008,2.246-.044,3.029Zm0,0" transform="translate(-244 -244)" fill="#fff"/>
  </g>
</svg>
