<svg xmlns="http://www.w3.org/2000/svg" width="84.322" height="84.322" viewBox="0 0 84.322 84.322">
  <g id="Group_190" data-name="Group 190" transform="translate(0 0)">
    <path id="Path_424" data-name="Path 424" d="M468.113,467.836l13.715-7.9-13.715-7.9Zm0,0" transform="translate(-431.204 -417.777)" fill="#8c5e1a"/>
    <path id="Path_425" data-name="Path 425" d="M286.161,244a42.161,42.161,0,1,0,42.161,42.161A42.166,42.166,0,0,0,286.161,244Zm26.344,42.2s0,8.55-1.085,12.674a6.6,6.6,0,0,1-4.644,4.643c-4.123,1.085-20.615,1.085-20.615,1.085s-16.449,0-20.615-1.128a6.6,6.6,0,0,1-4.644-4.644c-1.085-4.079-1.085-12.673-1.085-12.673s0-8.55,1.085-12.673a6.736,6.736,0,0,1,4.644-4.687c4.123-1.085,20.615-1.085,20.615-1.085s16.492,0,20.615,1.128a6.6,6.6,0,0,1,4.644,4.644c1.129,4.123,1.085,12.716,1.085,12.716Zm0,0" transform="translate(-244 -244)" fill="#8c5e1a"/>
  </g>
</svg>
