<svg xmlns="http://www.w3.org/2000/svg" width="9.561" height="17.561" viewBox="0 0 9.561 17.561">
  <g id="Group_1378" data-name="Group 1378" transform="translate(-125.835 -1.926)">
    <path id="arrow-right" d="M14.881,21.122a1,1,0,0,1-.707-1.707l7.561-7.561a1,1,0,0,1,1.414,1.414l-7.561,7.561A1,1,0,0,1,14.881,21.122Z" transform="translate(111.954 -1.635)" fill="#fff"/>
    <path id="arrow-right-2" data-name="arrow-right" d="M14.881,11.561a1,1,0,0,0-.707,1.707l7.561,7.561a1,1,0,0,0,1.414-1.414l-7.561-7.561A1,1,0,0,0,14.881,11.561Z" transform="translate(111.954 -9.635)" fill="#fff"/>
  </g>
</svg>
