<svg xmlns="http://www.w3.org/2000/svg" width="33.295" height="33.287" viewBox="0 0 33.295 33.287">
  <g id="Group_1259" data-name="Group 1259" transform="translate(0.25 0.25)">
    <path id="Path_411" data-name="Path 411" d="M1084.479,321.713h3.468a3.409,3.409,0,0,1,.4.011,1.015,1.015,0,0,1,.932,1.065,1,1,0,0,1-1.027.971c-1.412.009-2.824,0-4.236,0-.612,0-1.223,0-1.834,0a1.022,1.022,0,0,1-1.094-1.081q-.012-3.018,0-6.036a1.026,1.026,0,1,1,2.049.021c.005,1.1,0,2.2.007,3.3a.469.469,0,0,0,.017.066,2.333,2.333,0,0,0,.205-.149,15.61,15.61,0,0,1,9.5-4.23,15.964,15.964,0,0,1,14.767,6.664,15.5,15.5,0,0,1,3.1,11.1,16.431,16.431,0,0,1-17.792,14.865,16.386,16.386,0,0,1-14.606-13.2,25.038,25.038,0,0,1-.312-2.978,1.01,1.01,0,0,1,1-1.167,1.033,1.033,0,0,1,1.05,1.156,14.338,14.338,0,1,0,18.759-13.756,13.837,13.837,0,0,0-14.112,3.071c-.067.059-.128.124-.189.188A.549.549,0,0,0,1084.479,321.713Z" transform="translate(-1078.016 -315.568)" fill="#fff" stroke="#fff" stroke-width="0.5"/>
    <path id="Path_412" data-name="Path 412" d="M1221.171,431.5c0,.288.005.6,0,.907a1.019,1.019,0,1,1-2.035.014c-.007-.309,0-.619,0-.981h-1.21c-.256,0-.511,0-.767,0a1.034,1.034,0,0,1-1.1-1.044,1.023,1.023,0,0,1,1.093-1.012c1.334,0,2.668.007,4,0a1.013,1.013,0,0,0,.921-1.5,1.052,1.052,0,0,0-1-.548c-.678,0-1.357.014-2.034,0a3.063,3.063,0,0,1-.865-5.979c.293-.094.6-.133.955-.208,0-.288,0-.6,0-.9a1.02,1.02,0,1,1,2.036-.016c.006.308,0,.617,0,.965.688,0,1.341-.005,1.993,0a1.033,1.033,0,0,1,1.068.86,1.02,1.02,0,0,1-1.063,1.194c-1.334.007-2.668,0-4,0a1.015,1.015,0,0,0-.929,1.517,1.067,1.067,0,0,0,1.007.534c.678,0,1.357-.015,2.034,0a3.061,3.061,0,0,1,1.018,5.915A9.862,9.862,0,0,1,1221.171,431.5Z" transform="translate(-1203.759 -409.918)" fill="#fff" stroke="#fff" stroke-width="0.5"/>
  </g>
</svg>
