<svg xmlns="http://www.w3.org/2000/svg" width="84.322" height="84.322" viewBox="0 0 84.322 84.322">
  <g id="Group_187" data-name="Group 187" transform="translate(0 0)">
    <path id="Path_420" data-name="Path 420" d="M467.14,459.07a8.07,8.07,0,1,1-8.07-8.07,8.07,8.07,0,0,1,8.07,8.07Zm0,0" transform="translate(-416.909 -416.909)" fill="#8c5e1a"/>
    <path id="Path_421" data-name="Path 421" d="M418.2,385.057a8.016,8.016,0,0,0-4.595-4.595,13.4,13.4,0,0,0-4.495-.833c-2.553-.116-3.319-.142-9.783-.142s-7.23.025-9.783.141a13.406,13.406,0,0,0-4.5.834,8.02,8.02,0,0,0-4.6,4.595,13.4,13.4,0,0,0-.833,4.5c-.117,2.553-.142,3.318-.142,9.783s.025,7.23.142,9.783a13.4,13.4,0,0,0,.833,4.5,8.016,8.016,0,0,0,4.595,4.595,13.376,13.376,0,0,0,4.5.834c2.553.116,3.318.141,9.782.141s7.231-.024,9.783-.141a13.376,13.376,0,0,0,4.5-.834,8.017,8.017,0,0,0,4.595-4.595,13.407,13.407,0,0,0,.834-4.5c.116-2.553.141-3.319.141-9.783s-.025-7.23-.141-9.783a13.381,13.381,0,0,0-.834-4.5Zm-18.872,26.709a12.432,12.432,0,1,1,12.431-12.431,12.432,12.432,0,0,1-12.431,12.431Zm12.923-22.449a2.905,2.905,0,1,1,2.905-2.905,2.905,2.905,0,0,1-2.905,2.905Zm0,0" transform="translate(-357.171 -357.174)" fill="#8c5e1a"/>
    <path id="Path_422" data-name="Path 422" d="M286.161,244a42.161,42.161,0,1,0,42.161,42.161A42.166,42.166,0,0,0,286.161,244Zm24.064,52.142a17.762,17.762,0,0,1-1.125,5.877,12.379,12.379,0,0,1-7.08,7.08,17.775,17.775,0,0,1-5.876,1.125c-2.582.118-3.406.146-9.981.146s-7.4-.028-9.982-.146A17.773,17.773,0,0,1,270.3,309.1a12.38,12.38,0,0,1-7.08-7.08,17.761,17.761,0,0,1-1.125-5.876c-.119-2.582-.147-3.407-.147-9.982s.028-7.4.146-9.981a17.762,17.762,0,0,1,1.125-5.877,12.388,12.388,0,0,1,7.081-7.08,17.779,17.779,0,0,1,5.877-1.125c2.582-.118,3.406-.146,9.981-.146s7.4.028,9.981.147a17.784,17.784,0,0,1,5.877,1.124,12.383,12.383,0,0,1,7.08,7.081,17.762,17.762,0,0,1,1.126,5.877c.118,2.582.145,3.406.145,9.981s-.028,7.4-.146,9.981Zm0,0" transform="translate(-244 -244)" fill="#8c5e1a"/>
  </g>
</svg>
