<svg id="Group_1260" data-name="Group 1260" xmlns="http://www.w3.org/2000/svg" width="37.471" height="32.786" viewBox="0 0 37.471 32.786">
  <path id="Path_407" data-name="Path 407" d="M36.3,142.052a1.171,1.171,0,0,0-1.171,1.171v8.2H2.342V137.368H15.223a1.171,1.171,0,1,0,0-2.342H2.342v-4.684H15.223a1.171,1.171,0,0,0,0-2.342H2.342A2.343,2.343,0,0,0,0,130.342v21.077a2.343,2.343,0,0,0,2.342,2.342H35.129a2.343,2.343,0,0,0,2.342-2.342v-8.2A1.171,1.171,0,0,0,36.3,142.052Z" transform="translate(0 -120.975)" fill="#fff"/>
  <path id="Path_408" data-name="Path 408" d="M65.171,320a1.171,1.171,0,1,0,0,2.342h4.684a1.171,1.171,0,1,0,0-2.342Z" transform="translate(-59.316 -298.923)" fill="#fff"/>
  <path id="Path_409" data-name="Path 409" d="M274.026,35.614l-8.2-3.513a1.2,1.2,0,0,0-.925,0l-8.2,3.513A1.174,1.174,0,0,0,256,36.691v4.684c0,6.443,2.382,10.209,8.785,13.9a1.177,1.177,0,0,0,1.166,0c6.4-3.679,8.785-7.445,8.785-13.9V36.691A1.172,1.172,0,0,0,274.026,35.614Zm-1.632,5.761c0,5.408-1.789,8.384-7.026,11.522-5.237-3.145-7.026-6.122-7.026-11.522V37.464l7.026-3.012,7.026,3.012Z" transform="translate(-237.264 -32.008)" fill="#fff"/>
  <path id="Path_410" data-name="Path 410" d="M322.156,130.883a1.17,1.17,0,1,0-1.948,1.3l2.342,3.513a1.18,1.18,0,0,0,.925.522h.049a1.171,1.171,0,0,0,.916-.44l4.684-5.855a1.171,1.171,0,0,0-1.829-1.464l-3.681,4.6Z" transform="translate(-296.591 -120.994)" fill="#fff"/>
</svg>
