<svg xmlns="http://www.w3.org/2000/svg" width="84.322" height="84.322" viewBox="0 0 84.322 84.322">
  <g id="Group_189" data-name="Group 189" transform="translate(0 0)">
    <path id="Path_423" data-name="Path 423" d="M286.161,244a42.161,42.161,0,1,0,42.161,42.161A42.166,42.166,0,0,0,286.161,244Zm19.25,32.873q.028.622.028,1.25c0,12.788-9.734,27.533-27.534,27.534h0a27.392,27.392,0,0,1-14.833-4.347,19.68,19.68,0,0,0,2.308.134A19.417,19.417,0,0,0,277.4,297.3a9.688,9.688,0,0,1-9.041-6.722,9.642,9.642,0,0,0,4.371-.166,9.68,9.68,0,0,1-7.764-9.486c0-.044,0-.083,0-.124a9.611,9.611,0,0,0,4.383,1.21,9.685,9.685,0,0,1-3-12.919A27.475,27.475,0,0,0,286.3,279.207a9.682,9.682,0,0,1,16.49-8.825,19.411,19.411,0,0,0,6.145-2.349,9.714,9.714,0,0,1-4.256,5.353,19.3,19.3,0,0,0,5.557-1.524,19.668,19.668,0,0,1-4.827,5.012Zm0,0" transform="translate(-244 -244)" fill="#8c5e1a"/>
  </g>
</svg>
