<svg xmlns="http://www.w3.org/2000/svg" width="25.59" height="25.59" viewBox="0 0 25.59 25.59">
  <g id="Group_189" data-name="Group 189" transform="translate(0 0)">
    <path id="Path_423" data-name="Path 423" d="M256.8,244a12.8,12.8,0,1,0,12.8,12.8A12.8,12.8,0,0,0,256.8,244Zm5.842,9.976q.009.189.008.38a8.3,8.3,0,0,1-8.356,8.356h0a8.313,8.313,0,0,1-4.5-1.319,5.974,5.974,0,0,0,.7.041,5.893,5.893,0,0,0,3.648-1.257,2.94,2.94,0,0,1-2.744-2.04,2.926,2.926,0,0,0,1.326-.05,2.938,2.938,0,0,1-2.356-2.879c0-.013,0-.025,0-.038a2.917,2.917,0,0,0,1.33.367,2.939,2.939,0,0,1-.909-3.921,8.338,8.338,0,0,0,6.054,3.069,2.938,2.938,0,0,1,5-2.678,5.892,5.892,0,0,0,1.865-.713,2.948,2.948,0,0,1-1.292,1.624,5.856,5.856,0,0,0,1.686-.463,5.968,5.968,0,0,1-1.465,1.521Zm0,0" transform="translate(-244 -244)" fill="#fff"/>
  </g>
</svg>
