<svg xmlns="http://www.w3.org/2000/svg" xmlns:xlink="http://www.w3.org/1999/xlink" width="1920" height="804" viewBox="0 0 1920 804">
  <defs>
    <clipPath id="clip-path">
      <rect id="Rectangle_1907" data-name="Rectangle 1907" width="1920" height="804" transform="translate(0 6378)" fill="#fff"/>
    </clipPath>
  </defs>
  <g id="Mask_Group_27" data-name="Mask Group 27" transform="translate(0 -6378)" clip-path="url(#clip-path)">
    <g id="Group_1380" data-name="Group 1380" transform="translate(2138.5 1238.058)">
      <path id="Path_2274" data-name="Path 2274" d="M0,0H1920V806H0Z" transform="translate(-2138.5 5140)" fill="#fdfffa"/>
      <g id="Group_1252" data-name="Group 1252" transform="translate(-549.39 5131.221)" opacity="0.4">
        <path id="Path_2167" data-name="Path 2167" d="M494.318,141.68c20.356-22.3,110.664-115.211,126.989-89.232C627.3,61.992,575.5,139.276,494.318,141.68Z" transform="translate(-494.318 23.471)" fill="none" stroke="#89a16d" stroke-linecap="round" stroke-linejoin="round" stroke-width="1.5"/>
        <path id="Path_2168" data-name="Path 2168" d="M615.727,88.41c-39.883,58.648-29.956,96.843,3.273,125.628-8.527-47.466-10.21-48.87,11.828-80.256,31.6-45.009,23.45-80.335,13.6-81.029C636.292,52.178,620.413,81.519,615.727,88.41Z" transform="translate(-494.318 23.97)" fill="none" stroke="#89a16d" stroke-linecap="round" stroke-linejoin="round" stroke-width="1.5"/>
        <path id="Path_2169" data-name="Path 2169" d="M607.2,30.058c-52.315,20.829-65.446,59.724-102.37,47.8,15.158-7.3,25.423-22.855,37.759-35C588.253-2.121,668.739-4.179,657.163,19.779,653.213,27.955,640.774,16.692,607.2,30.058Z" transform="translate(-494.318 19.01)" fill="none" stroke="#89a16d" stroke-linecap="round" stroke-linejoin="round" stroke-width="1.5"/>
        <path id="Path_2170" data-name="Path 2170" d="M698.018,109.528c20.648,17.357,36.249,11.113,82.69-2.127-13.418-16.939-64.5-7.453-83.233-49.37-3.6-8.043-7.195-30.174-17.937-16.761C664.658,59.849,683.929,97.686,698.018,109.528Z" transform="translate(-494.318 22.353)" fill="none" stroke="#89a16d" stroke-linecap="round" stroke-linejoin="round" stroke-width="1.5"/>
        <path id="Path_2171" data-name="Path 2171" d="M715.372,53.5c6.523,26.16,30.543,24.245,37.477,39.81,6.819-36.815-5.781-41.456-17.2-53.786-10.2-11.018-4.186-35.679-14.43-27.707C713.526,17.8,713.3,45.192,715.372,53.5Z" transform="translate(-494.318 19.593)" fill="none" stroke="#89a16d" stroke-linecap="round" stroke-linejoin="round" stroke-width="1.5"/>
        <path id="Path_2172" data-name="Path 2172" d="M515.073,135.912c35.382-15.02,62.662-46.54,95.13-68.13,46.719-31.066,104.369-41.569,143.536-84.587" transform="translate(-494.318 16.806)" fill="none" stroke="#89a16d" stroke-linecap="round" stroke-linejoin="round" stroke-width="1.5"/>
        <path id="Path_2173" data-name="Path 2173" d="M606.152,177.494c-6.084-57.868,29.355-76.3,39.412-107.221,3.735-11.482,7.915-28.49,18.587-36.059" transform="translate(-494.318 22.061)" fill="none" stroke="#89a16d" stroke-linecap="round" stroke-linejoin="round" stroke-width="1.5"/>
        <path id="Path_2174" data-name="Path 2174" d="M533.016,64.226C633.39-10.553,654.56,17.427,687.6,25.5" transform="translate(-494.318 19.944)" fill="none" stroke="#89a16d" stroke-linecap="round" stroke-linejoin="round" stroke-width="1.5"/>
        <path id="Path_2175" data-name="Path 2175" d="M746.516,77.608C740.595,60.109,708.1,37.131,732.171.855" transform="translate(-494.318 18.625)" fill="none" stroke="#89a16d" stroke-linecap="round" stroke-linejoin="round" stroke-width="1.5"/>
        <path id="Path_2176" data-name="Path 2176" d="M761.879,108.152c-77.651,4.466-95.634-67.142-58.964-90.733" transform="translate(-494.318 20.331)" fill="none" stroke="#89a16d" stroke-linecap="round" stroke-linejoin="round" stroke-width="1.5"/>
      </g>
      <g id="Group_1285" data-name="Group 1285" transform="matrix(0.259, 0.966, -0.966, 0.259, 5101.254, 5458.531)" opacity="0.08">
        <path id="Path_2177" data-name="Path 2177" d="M462.26,792.152c70.921,211.05-221.821,311.094-403.128-30.086,76.983-30.639,152.688,70.736,228.526,36.443,20.732-9.37-8.2-44.893-51.642-55.144C122.854,716.66-21.681,779.337,2.725,497.77,62.131,560.859,159.131,565.352,230.3,613.234c90.348,60.783,79.864,14.22,53.084-4.8C206.025,553.495,90.738,529.4,73.353,450.244,56.038,371.4,138.425,305.287,149.669,227.8c54.825,47.458,20.707,166.479,157.466,248.261,20.1,12.019,24.937-1.87,22.2-8.378-18.42-43.814-56.191-74.791-87.246-109.776C106.016,204.617,282.293,141.791,323.8,76.764,297.122,210.35,372.124,324.605,390.7,318.171c44.505-15.413-53.046-173.259-10.622-236.939,7.794-11.7,10.957-13.24,92.36-81.233-14.254,40.51,6.5,84.324,37.213,108.626,71.7,56.74,161.405,31.318,145.821,111.67-22.575,116.4-86.4,162.59-94.722,206.279-1.286,6.758,5.794,11.312,11.193,7.233,70.088-52.994,91.075-156.18,120.624-229.637C820.237,491.32,745.69,438.41,596.2,534.505c-32.819,21.094-23.516,41.687-13.609,44.02C596.8,581.876,701.832,525.766,776,426.816c11.323,34.813,29.1,116.263,13.594,150.34-16.179,35.539-53.218,42.2-171.761,76.457-10.467,3.023-11.561,18.761-1.44,21.511,38.235,10.4,130.829-9.684,188.946-86.706-5.052,57.775-34.679,174.338-85.266,195.316-27.952,11.589-56.26-1.722-110.792-24.211-9.129-3.764-19.106,5.984-16.344,16.035,12.091,44.041,87.907,63.463,145.665,15.83-30.488,38.7-106.977,122.729-153.339,125-49.364,2.41-98.662-72.242-101.21-113.068-1.052-16.826,11.877-66.52-15.043-65.346C451.478,738.733,457.6,778.3,462.26,792.152Z" transform="translate(-2285.539 6343.825) rotate(-25)" fill="none" stroke="#89a16d" stroke-linecap="round" stroke-linejoin="round" stroke-width="1.5"/>
        <path id="Path_2178" data-name="Path 2178" d="M15.55,65.325c-17.056,3.3-22.319-6.061-4.333-21.721C127.37-57.528,113.662,46.371,15.55,65.325Z" transform="translate(-1675.83 6995.626) rotate(-25)" fill="none" stroke="#89a16d" stroke-linecap="round" stroke-linejoin="round" stroke-width="1.5"/>
        <path id="Path_2179" data-name="Path 2179" d="M7.666,42.594c-10.783-.315-9.013-11.5-1.936-19.341C62.08-39.149,54.456,43.955,7.666,42.594Z" transform="translate(-1586.171 6687.87) rotate(-25)" fill="none" stroke="#89a16d" stroke-linecap="round" stroke-linejoin="round" stroke-width="1.5"/>
        <path id="Path_2180" data-name="Path 2180" d="M12.326.344C28.928-3.184,60.265,21.121,44.914,41.5,27.529,64.571-23.166,7.88,12.326.344Z" transform="translate(-1729.384 6664.879) rotate(-25)" fill="none" stroke="#89a16d" stroke-linecap="round" stroke-linejoin="round" stroke-width="1.5"/>
        <path id="Path_2181" data-name="Path 2181" d="M18.124,55.541C-28.174,72.515,25.4-13.965,54.807,1.97,75.836,13.375,41.174,47.094,18.124,55.541Z" transform="translate(-1649.569 6580.47) rotate(-25)" fill="none" stroke="#89a16d" stroke-linecap="round" stroke-linejoin="round" stroke-width="1.5"/>
        <path id="Path_2182" data-name="Path 2182" d="M30.654,10.35c22.114,30.81,8.481,74.1-25.294,22.182C-11,7.384,13.755-13.185,30.654,10.35Z" transform="translate(-1792.752 6499.224) rotate(-25)" fill="none" stroke="#89a16d" stroke-linecap="round" stroke-linejoin="round" stroke-width="1.5"/>
        <path id="Path_2183" data-name="Path 2183" d="M2.065,53.851C-5.12,43.434,7.781,5.693,20.262.978,51.261-10.706,24.807,86.78,2.065,53.851Z" transform="translate(-1778.94 6327.514) rotate(-25)" fill="none" stroke="#89a16d" stroke-linecap="round" stroke-linejoin="round" stroke-width="1.5"/>
        <path id="Path_2184" data-name="Path 2184" d="M.1,99.7c-3.83,65.607,101.492-69.25,54.092-97.381C23.277-16.031,1.263,79.818.1,99.7Z" transform="translate(-1711.166 6361.93) rotate(-25)" fill="none" stroke="#89a16d" stroke-linecap="round" stroke-linejoin="round" stroke-width="1.5"/>
        <path id="Path_2185" data-name="Path 2185" d="M14.034,0c-49.715,497.488,49.152,777.309,42.45,856.172C54.013,885.25,43.245,913.351,32.611,940.9" transform="translate(-1856.566 6233.021) rotate(-25)" fill="none" stroke="#89a16d" stroke-linecap="round" stroke-linejoin="round" stroke-width="1.5"/>
        <path id="Path_2186" data-name="Path 2186" d="M0,0C-.2,45.634,44.639,191.432,102.512,247.062c27,25.947,59.923,39.63,77.163,73.983" transform="translate(-1964.632 6413.902) rotate(-25)" fill="none" stroke="#89a16d" stroke-linecap="round" stroke-linejoin="round" stroke-width="1.5"/>
        <path id="Path_2187" data-name="Path 2187" d="M98.093,0C160.886,47.1,25.459,141.063,0,258.563" transform="translate(-1822.187 6304.925) rotate(-25)" fill="none" stroke="#89a16d" stroke-linecap="round" stroke-linejoin="round" stroke-width="1.5"/>
        <path id="Path_2188" data-name="Path 2188" d="M0,0C35.86,222.716,221.832,201.574,313.761,299.288" transform="translate(-2006.955 6609.927) rotate(-25)" fill="none" stroke="#89a16d" stroke-linecap="round" stroke-linejoin="round" stroke-width="1.5"/>
        <path id="Path_2189" data-name="Path 2189" d="M258.473,0C241.275,148.282,46.786,199.251,0,296.032" transform="translate(-1738.344 6452.373) rotate(-25)" fill="none" stroke="#89a16d" stroke-linecap="round" stroke-linejoin="round" stroke-width="1.5"/>
        <path id="Path_2190" data-name="Path 2190" d="M197.807,322.278C173.3,343.8,136.713,338.984,112.8,320.517,64.594,283.295,47.3,203.616,0,175.313c38.561-21.3,87.7-22.389,128.211-38.193C148.6,129.161,261.626,68.473,302.806,0" transform="translate(-1653.573 6617.312) rotate(-25)" fill="none" stroke="#89a16d" stroke-linecap="round" stroke-linejoin="round" stroke-width="1.5"/>
        <path id="Path_2191" data-name="Path 2191" d="M0,0C100.686,154.294,309.743,95.835,460.289,88.457c31.139-1.527,58.57,16.044,87.884,24.894,42.426,12.809,148.071,8.155,157.569-22.257" transform="translate(-1990.017 6865.01) rotate(-25)" fill="none" stroke="#89a16d" stroke-linecap="round" stroke-linejoin="round" stroke-width="1.5"/>
        <path id="Path_2192" data-name="Path 2192" d="M0,145.96c47.659,47.017,124.23,7.65,168.616-12.188,61.292-27.4,99.012-33.31,134.612-133.772" transform="translate(-1854.3 6904.349) rotate(-25)" fill="none" stroke="#89a16d" stroke-linecap="round" stroke-linejoin="round" stroke-width="1.5"/>
        <path id="Path_2193" data-name="Path 2193" d="M0,260.2C88.7,203.625,104.9,106.6,115.848,0" transform="translate(-1684.476 6825.16) rotate(-25)" fill="none" stroke="#89a16d" stroke-linecap="round" stroke-linejoin="round" stroke-width="1.5"/>
      </g>
      <path id="Path_2160" data-name="Path 2160" d="M215.806,74.744c-37.068-2.934-72.965-21.292-98.945-50.6,13.467,99.486,82.679,33.64,83.038,140.953-33.64-7.758-63.145-34.705-76.334-69.71-3.059,93.245,59.4,51.352,40.556,160.406-46-26.9-52.791-88.8-47.488-145.947C104.72,149.5,74.9,182.055,38.829,194.793c.074-33.943,19.525-66.908,47.634-80.725,17.566-8.633,35.882-11.784,26.41-62.627-17.506,58.461-64.811,48.6-79.724,66.821C44.7,12.825,101.824,60.535,101.929,15.394c.013-6.434-4.709-14.324,1.115-20.049,3.14-3.086,9.7-5.144,12.042.292.879,2.04.684,4.458,1.387,6.578,4.508,13.617,24.028,4.43,32.538,4.231,14.266-.337,40.737,12.583,54.51,33.4C205.377,42.656,217.79,74.894,215.806,74.744Z" transform="matrix(-0.921, 0.391, -0.391, -0.921, -166.51, 5921.518)" fill="#75895c" opacity="0.15"/>
    </g>
  </g>
</svg>
