<svg xmlns="http://www.w3.org/2000/svg" width="26.594" height="35.458" viewBox="0 0 26.594 35.458">
  <path id="phone-volume" d="M6.741,35.11a23.012,23.012,0,0,1,0-32.545A1.191,1.191,0,0,1,8.213,2.4L12.7,5.2a1.19,1.19,0,0,1,.474,1.451l-2.244,5.611a1.19,1.19,0,0,1-1.224.742l-3.865-.386a18.4,18.4,0,0,0,0,12.432l3.865-.387a1.19,1.19,0,0,1,1.224.742l2.244,5.611a1.19,1.19,0,0,1-.474,1.451L8.213,35.278A1.19,1.19,0,0,1,6.741,35.11Zm10.374-28.5a4.436,4.436,0,0,1,0,4.505.835.835,0,0,1-1.3.179l-.414-.4a.837.837,0,0,1-.157-1,2.221,2.221,0,0,0,0-2.074.837.837,0,0,1,.157-1l.414-.4A.835.835,0,0,1,17.115,6.612ZM23.471.3a13.316,13.316,0,0,1,0,17.136.834.834,0,0,1-1.216.065l-.4-.385a.833.833,0,0,1-.064-1.134,11.1,11.1,0,0,0,0-14.226A.833.833,0,0,1,21.854.617l.4-.385A.834.834,0,0,1,23.471.3ZM20.287,3.409a8.878,8.878,0,0,1,0,10.911.835.835,0,0,1-1.237.09l-.4-.386a.83.83,0,0,1-.089-1.1,6.657,6.657,0,0,0,0-8.112.83.83,0,0,1,.089-1.1l.4-.386A.835.835,0,0,1,20.287,3.409Z" transform="translate(0)" fill="#8c5e1a"/>
</svg>
