<svg xmlns="http://www.w3.org/2000/svg" xmlns:xlink="http://www.w3.org/1999/xlink" width="29.561" height="17.243" viewBox="0 0 29.561 17.243">
  <defs>
    <clipPath id="clip-path">
      <rect id="Rectangle_63" data-name="Rectangle 63" width="29.561" height="17.243" fill="none"/>
    </clipPath>
  </defs>
  <g id="UNITED_KINGDOM" data-name="UNITED KINGDOM" transform="translate(2385.67 -3275.351)">
    <g id="Group_58" data-name="Group 58" transform="translate(-2385.67 3275.351)">
      <g id="Group_57" data-name="Group 57">
        <g id="Group_56" data-name="Group 56" clip-path="url(#clip-path)">
          <rect id="Rectangle_62" data-name="Rectangle 62" width="29.561" height="17.243" fill="#fff"/>
          <path id="Path_24" data-name="Path 24" d="M-2349.55,3281.585l9.768-5.468v-.767h-.674l-11.137,6.234Z" transform="translate(2369.343 -3275.351)" fill="#db1e34"/>
          <path id="Path_25" data-name="Path 25" d="M-2348.556,3297.15l10.229,5.724v-1.144l-8.185-4.58Z" transform="translate(2367.888 -3285.795)" fill="#db1e34"/>
          <path id="Path_26" data-name="Path 26" d="M-2385.67,3276.818l8.75,4.921h2.044l-10.794-6.066Z" transform="translate(2385.67 -3275.505)" fill="#db1e34"/>
          <path id="Path_27" data-name="Path 27" d="M-2375.339,3297.15l-10.331,5.788v.1h1.867l10.51-5.888Z" transform="translate(2385.67 -3285.795)" fill="#db1e34"/>
          <path id="Path_28" data-name="Path 28" d="M-2342.323,3275.351h-10.35v5.8Z" transform="translate(2369.86 -3275.351)" fill="#2a3076"/>
          <path id="Path_29" data-name="Path 29" d="M-2370.928,3275.351h-10.309l10.309,5.8Z" transform="translate(2383.546 -3275.351)" fill="#2a3076"/>
          <path id="Path_30" data-name="Path 30" d="M-2335.376,3283.681v-3.956l-7.021,3.956Z" transform="translate(2364.937 -3277.447)" fill="#2a3076"/>
          <path id="Path_31" data-name="Path 31" d="M-2335.376,3301.063v-3.914h-7.021Z" transform="translate(2364.937 -3285.795)" fill="#2a3076"/>
          <path id="Path_32" data-name="Path 32" d="M-2380.114,3303.443h9.724v-5.449Z" transform="translate(2383.008 -3286.2)" fill="#2a3076"/>
          <path id="Path_33" data-name="Path 33" d="M-2352.672,3303.443h9.754l-9.754-5.449Z" transform="translate(2369.86 -3286.2)" fill="#2a3076"/>
          <path id="Path_34" data-name="Path 34" d="M-2385.67,3297.15v4.09l7.266-4.09Z" transform="translate(2385.67 -3285.795)" fill="#2a3076"/>
          <path id="Path_35" data-name="Path 35" d="M-2385.67,3283.552h7.266l-7.266-4.1Z" transform="translate(2385.67 -3277.318)" fill="#2a3076"/>
          <path id="Path_36" data-name="Path 36" d="M-2372.138,3275.351v7.258h-13.532v3.074h13.532v6.91h2.741v-6.91h13.287v-3.074H-2369.4v-7.258Z" transform="translate(2385.67 -3275.351)" fill="#db1e34"/>
        </g>
      </g>
    </g>
  </g>
</svg>
